<?xml version="1.0" encoding="utf-8"?>
<!-- Generator: Adobe Illustrator 22.0.0, SVG Export Plug-In . SVG Version: 6.00 Build 0)  -->
<svg version="1.1" id="图层_1" xmlns="http://www.w3.org/2000/svg" xmlns:xlink="http://www.w3.org/1999/xlink" x="0px" y="0px"
	 viewBox="0 0 463.5 159.5" style="enable-background:new 0 0 463.5 159.5;" xml:space="preserve">
<style type="text/css">
	.st0{fill-rule:evenodd;clip-rule:evenodd;fill:#FFFFFF;}
</style>
<g>
	<path class="st0" d="M442.6,160.9v-47.3h-41.5v47.3h-21.5v-47.3V97.7h74c5.8,0,10.5,4.7,10.5,10.5v5.4v47.3H442.6z M364.3,160.9
		h-57.8c-5.8,0-10.5-4.7-10.5-10.5v-5.1v-31.7v-5.1c0-5.8,4.7-10.5,10.5-10.5h57.8c5.8,0,10.5,4.7,10.5,10.5v5.1v31.7v5.1
		C374.8,156.2,370.1,160.9,364.3,160.9z M353.8,113.6h-36.3v31.7h36.3V113.6z M310.7,39.1c-3.6-3.7-11-6.8-24.8-8.7
		c-4.5-0.6-8.9-1.1-13.1-1.4c-3.4-0.2-6.7-0.4-9.9-0.4c-5.3,7.8-10.3,17.2-14.7,28.5c-4.8,12.4-9.1,24.6-12.1,35.7h24.2v15.6h-53
		v10.5h36.3h0.2h0.5c11.5,0,20.3,9.8,20.3,22v4.3l0,0v5.3c0,5.8-4.7,10.5-10.5,10.5h-68.2v-15.8h57.8v-10.7h-36.3h-0.5
		c-11.6,0-21-9.4-21-21v-5.1v-5.1c0-5.8,4.7-10.5,10.5-10.5h38.8c0.3-11.9,2.3-25.4,6.4-39.4c2.7-9.1,5.9-17.1,9.5-24.1
		c-16.2,1.7-27.8,6.6-33.2,13.6c4.6-11.1,18.3-20.5,39.2-23.8c11.1-16.3,24.2-23.6,35.1-20.4c3.8,1.1,7,3.5,9.6,6.9
		c-0.3-0.2-0.6-0.4-1-0.5c-8-3.2-18.8,1.4-29.3,12.8c0.2,0,0.3,0,0.5,0C295.5,17.8,307.4,27.6,310.7,39.1z M165,160.9h-57.9
		c-5.8,0-10.5-4.7-10.5-10.5v-3.9V97.7h21.7v48.8h36.3V97.7h21v48.8v3.9C175.5,156.2,170.8,160.9,165,160.9z M23.6,103.1h62.5v15.8
		H23.6v42H2.1V71.6h21.5h73.3v15.9H23.6V103.1z M281.3,54.1c6.4,0,11.6,5.3,11.6,11.8c0,6.5-5.2,11.8-11.6,11.8
		c-6.4,0-11.6-5.3-11.6-11.8C269.7,59.3,274.9,54.1,281.3,54.1z M291.2,160.9h-21.5V87.4h21.5V160.9z"/>
</g>
</svg>
