<?xml version="1.0" encoding="utf-8"?>
<!-- Generator: Adobe Illustrator 16.0.0, SVG Export Plug-In . SVG Version: 6.00 Build 0)  -->
<!DOCTYPE svg PUBLIC "-//W3C//DTD SVG 1.1//EN" "http://www.w3.org/Graphics/SVG/1.1/DTD/svg11.dtd">
<svg version="1.1" id="图层_1" xmlns="http://www.w3.org/2000/svg" xmlns:xlink="http://www.w3.org/1999/xlink" x="0px" y="0px"
	 width="439.873px" height="54.441px" viewBox="0 0 439.873 54.441" enable-background="new 0 0 439.873 54.441"
	 xml:space="preserve">
<g>
	<path fill="#FFFFFF" d="M0,54.441V0h44.312C56.38,0,61.023,4.488,61.023,11.754v5.02c0,4.719-2.556,8.286-6.425,9.051
		c4.097,1.09,7.116,3.641,7.116,8.902v7.956c0,6.187-3.793,11.759-17.248,11.759H0z M50.729,12.298c0-3.008-1.616-4.247-6.418-4.247
		H10.298v14.135h34.014c4.802,0,6.418-1.238,6.418-4.247V12.298z M51.43,34.873c0-3.396-2.863-4.646-6.963-4.646H10.298v16.17
		h34.169c4.1,0,6.963-1.238,6.963-5.641V34.873z"/>
	<path fill="#FFFFFF" d="M73.659,54.441V0h10.284v54.441H73.659z"/>
	<path fill="#FFFFFF" d="M121.586,54.441V8.051H93.057V0h66.579v8.051h-27.765v46.39H121.586z"/>
	<path fill="#FFFFFF" d="M241.789,54.441V16.314l-27.681,38.127h-8.43l-27.752-38.045v38.045h-9.516V0h9.588l32.324,44.455
		L242.488,0h8.822v54.441H241.789z"/>
	<path fill="#FFFFFF" d="M326.257,54.441l-28.061-43.854l-28.539,43.854h-11.449L294.404,0h7.506l35.941,54.441H326.257z"/>
	<path fill="#FFFFFF" d="M345.169,54.441V0h10.281v54.441H345.169z"/>
	<path fill="#FFFFFF" d="M434.853,54.441l-58.078-42.384v42.384h-8.967V0h8.895L430.9,40.451V0h8.973v54.441H434.853z"/>
</g>
</svg>
